<svg id="visual" viewBox="0 0 900 600" width="900" height="600" preserveAspectRatio="none" xmlns="http://www.w3.org/2000/svg" xmlns:xlink="http://www.w3.org/1999/xlink" version="1.1"><rect x="0" y="0" width="900" height="600" fill="#2d0853"></rect><defs><linearGradient id="grad1_0" x1="33.3%" y1="100%" x2="100%" y2="0%"><stop offset="20%" stop-color="#2d0853" stop-opacity="1"></stop><stop offset="80%" stop-color="#2d0853" stop-opacity="1"></stop></linearGradient></defs><defs><linearGradient id="grad2_0" x1="0%" y1="100%" x2="66.7%" y2="0%"><stop offset="20%" stop-color="#2d0853" stop-opacity="1"></stop><stop offset="80%" stop-color="#2d0853" stop-opacity="1"></stop></linearGradient></defs><g transform="translate(900, 600)"><path d="M-486.7 0C-474.4 -48.5 -462.1 -97 -448.9 -145.9C-435.7 -194.7 -421.7 -244 -393.8 -286.1C-365.9 -328.2 -324.2 -363.3 -279.2 -384.3C-234.2 -405.3 -185.8 -412.3 -138.7 -427C-91.7 -441.8 -45.8 -464.3 0 -486.7L0 0Z" fill="#cc3363"></path></g><g transform="translate(0, 0)"><path d="M486.7 0C463.1 46 439.5 92 423.2 137.5C407 183.1 398.2 228.2 378.6 275.1C359.1 322 328.8 370.6 286.1 393.8C243.4 417 188.2 414.8 138.4 426.1C88.7 437.3 44.3 462 0 486.7L0 0Z" fill="#cc3363"></path></g></svg>